{"title":"The Arijit Singh Mashup - DJ Notorious - Team truHD HEVC","uid":12382990,"size":55484041,"categoryP":"video","categoryS":"music_videos","magnet":"?xt=urn:btih:ca975659af29abef0b14ddb3f76d6e631141a666&amp;dn=The+Arijit+Singh+Mashup+-+DJ+Notorious+-+Team+truHD+HEVC&amp;tr=udp%3A%2F%2Ftracker.openbittorrent.com%3A80&amp;tr=udp%3A%2F%2Fopen.demonii.com%3A1337&amp;tr=udp%3A%2F%2Ftracker.coppersurfer.tk%3A6969&amp;tr=udp%3A%2F%2Fexodus.desync.com%3A6969","seeders":0,"leechers":0,"uploader":"Aainul","files":5,"time":1441790855,"description":"The Arijit Singh Mashup - DJ Notorious - Team truHD HEVC\n\nSource: WEB-DL\n\nEncoder: truHD HEVC Encoding Team\n\nEncoded File Info:\n\nGeneral\n\nFormat : MPEG-4\nFormat profile : Base Media\nCodec ID : iso4\nFile size : 52.7 MiB\nDuration : 3mn 49s\nOverall bit rate : 1 926 Kbps\nEncoded date : UTC 2015-08-28 15:28:44\nTagged date : UTC 2015-08-28 15:28:44\n\nVideo\nID : 1\nFormat : HEVC\nFormat/Info : High Efficiency Video Coding\nCodec ID : hvc1\nCodec ID/Info : High Efficiency Video Coding\nDuration : 3mn 49s\nBit rate : 1 731 Kbps\nMaximum bit rate : 6 459 Kbps\nWidth : 1 920 pixels\nHeight : 1 080 pixels\nDisplay aspect ratio : 16:9\nFrame rate mode : Constant\nFrame rate : 25.000 fps\nBits/(Pixel*Frame) : 0.033\nStream size : 47.3 MiB (90%)\nTitle : Video\nEncoded date : UTC 2015-08-28 15:28:44\nTagged date : UTC 2015-08-28 15:28:46\n\nAudio\nID : 2\nFormat : AC-3\nFormat/Info : Audio Coding 3\nMode extension : CM (complete main)\nFormat settings, Endianness : Big\nCodec ID : ac-3\nDuration : 3mn 49s\nBit rate mode : Constant\nBit rate : 192 Kbps\nMaximum bit rate : 201 Kbps\nChannel(s) : 6 channels\nChannel positions : Front: L C R, Side: L R, LFE\nSampling rate : 44.1 KHz\nBit depth : 16 bits\nCompression mode : Lossy\nStream size : 5.25 MiB (10%)\nTitle : \nEncoded date : UTC 2015-08-28 15:28:46\nTagged date : UTC 2015-08-28 15:28:46\n\n\nScreenShots:\n &lt;a href=&quot;\nhttps://yuq.me/users/36/459/oCeBEQgJTm.jpg&quot; rel=&quot;nofollow&quot; target=&quot;_NEW&quot;&gt;\nhttps://yuq.me/users/36/459/oCeBEQgJTm.jpg&lt;/a&gt;\n\nLike Us On FB And Request Accepted\n\nKickAssTorrents:   &lt;a href=&quot;\nhttps://kat.cr/user/Aainul/&quot; rel=&quot;nofollow&quot; target=&quot;_NEW&quot;&gt;\nhttps://kat.cr/user/Aainul/&lt;/a&gt;\nGloTorrents:   &lt;a href=&quot;\nhttps://glodls.to/user/Aainul&quot; rel=&quot;nofollow&quot; target=&quot;_NEW&quot;&gt;\nhttps://glodls.to/user/Aainul&lt;/a&gt;\nThePirateBay:   &lt;a href=&quot;\nhttps://thepiratebay.vg/user/Aainul/&quot; rel=&quot;nofollow&quot; target=&quot;_NEW&quot;&gt;\nhttps://thepiratebay.vg/user/Aainul/&lt;/a&gt;\n1337x Torrents:   &lt;a href=&quot;\nhttp://1337.to/user/Aainul/&quot; rel=&quot;nofollow&quot; target=&quot;_NEW&quot;&gt;\nhttp://1337.to/user/Aainul/&lt;/a&gt;\n\n\nNote: All Videos Uploaded By Me Are For Review Purpose. If You Like IT, Google IT And Buy IT - Thanks\n\n\nKing Regards\ntruHD HEVC Team\n\nShare Among Friends And Relatives","torrent":{"xt":"urn:btih:ca975659af29abef0b14ddb3f76d6e631141a666","amp;dn":"The+Arijit+Singh+Mashup+-+DJ+Notorious+-+Team+truHD+HEVC","amp;tr":["udp%3A%2F%2Ftracker.openbittorrent.com%3A80","udp%3A%2F%2Fopen.demonii.com%3A1337","udp%3A%2F%2Ftracker.coppersurfer.tk%3A6969","udp%3A%2F%2Fexodus.desync.com%3A6969"],"infoHash":"ca975659af29abef0b14ddb3f76d6e631141a666","infoHashBuffer":{"type":"Buffer","data":[202,151,86,89,175,41,171,239,11,20,221,179,247,109,110,99,17,65,166,102]},"announce":[],"urlList":[]}}